<svg xmlns="http://www.w3.org/2000/svg" viewBox="0 0 178.07 48.4"><title>logo</title><path d="M393,204.29a24.2,24.2,0,1,0,24.2,24.2A24.23,24.23,0,0,0,393,204.29ZM408,238a4.46,4.46,0,0,0-1.58-2.18,36.67,36.67,0,0,0,.68-5.91h7.25a21.18,21.18,0,0,1-2.18,8.08Zm-36.24-8.08h7.77a35.52,35.52,0,0,0,1.2,8.08h-6.78A21.18,21.18,0,0,1,371.72,229.91Zm6.71-11a4.47,4.47,0,0,0,1.73,2.3,36.69,36.69,0,0,0-.67,5.85h-7.77a21.18,21.18,0,0,1,2.21-8.14Zm25.19,16a4.45,4.45,0,0,0-4.11,3h-5.08v-8.08h9.78A33.13,33.13,0,0,1,403.62,235Zm-9.19-7.87v-8.14h8.41a31.9,31.9,0,0,1,1.37,8.14ZM382.95,222a4.45,4.45,0,0,0,3.93-3h4.72v8.14h-9.26A33.1,33.1,0,0,1,382.95,222Zm11.49-5.86v-7.35c2.92.59,5.54,3.35,7.34,7.35Zm-2.83-7.2v7.2h-4.72a4.45,4.45,0,0,0-1.16-1.83C387.31,211.48,389.35,209.56,391.6,208.9Zm-9.26,21h9.26V238h-7.91A31.94,31.94,0,0,1,382.34,229.91Zm9.26,10.92v7.26c-2.73-.8-5.16-3.47-6.85-7.26Zm2.83,7.41v-7.41h5.08a4.45,4.45,0,0,0,1.3,1.94C399.1,245.74,396.87,247.75,394.44,248.24Zm12.63-21.16a35.49,35.49,0,0,0-1.22-8.14h6.25a21.18,21.18,0,0,1,2.21,8.14Zm3.33-11h-5.48a19,19,0,0,0-5.44-8A21.44,21.44,0,0,1,410.39,216.1Zm-23-8.19a16.54,16.54,0,0,0-4.31,5.17c-.13,0-.26,0-.4,0a4.46,4.46,0,0,0-4.22,3.06h-2.79A21.41,21.41,0,0,1,387.36,207.91ZM375.6,240.83h6a18.74,18.74,0,0,0,5.74,8.25A21.41,21.41,0,0,1,375.6,240.83Zm23.86,8a16.85,16.85,0,0,0,4.06-5l.21,0a4.46,4.46,0,0,0,4.22-3.05h2.48A21.44,21.44,0,0,1,399.47,248.86Z" transform="translate(-368.82 -204.29)" style="fill:#ddd"/><rect x="57.59" y="25.62" width="7.09" height="13.97" style="fill:#ddd"/><rect x="57.59" y="9.7" width="7.09" height="13.12" style="fill:#ddd"/><path d="M444.24,227.12a8.47,8.47,0,0,1,3.18-5.82c4.39-3.43,11.28-1.22,11.34-1.21l2.27-6.71c-.43-.14-10.54-3.46-18,2.34a15.61,15.61,0,0,0-6,11.41Z" transform="translate(-368.82 -204.29)" style="fill:#ddd"/><path d="M447.42,236.14a8.55,8.55,0,0,1-3.24-6.22H437.1a15.61,15.61,0,0,0,6,11.81,17.27,17.27,0,0,0,10.78,3.41,24.45,24.45,0,0,0,7.18-1.07l-2.27-6.71C458.69,237.36,451.8,239.55,447.42,236.14Z" transform="translate(-368.82 -204.29)" style="fill:#ddd"/><polygon points="118.93 8.74 96.87 8.74 96.87 15.82 104.28 15.82 104.28 22.83 111.36 22.83 111.36 15.82 118.93 15.82 118.93 8.74" style="fill:#ddd"/><rect x="104.28" y="25.62" width="7.09" height="13.97" style="fill:#ddd"/><path d="M498,227.12a8.47,8.47,0,0,1,3.18-5.82c4.39-3.43,11.28-1.22,11.34-1.21l2.27-6.71c-.43-.14-10.54-3.46-18,2.34a15.61,15.61,0,0,0-6,11.41Z" transform="translate(-368.82 -204.29)" style="fill:#ddd"/><path d="M501.23,236.14a8.55,8.55,0,0,1-3.24-6.22h-7.08a15.61,15.61,0,0,0,6,11.81,17.27,17.27,0,0,0,10.78,3.41,24.45,24.45,0,0,0,7.18-1.07l-2.27-6.71C512.5,237.36,505.61,239.55,501.23,236.14Z" transform="translate(-368.82 -204.29)" style="fill:#ddd"/><path d="M539.77,229.91a11.05,11.05,0,0,1-.93,3.87c-.67,1.41-2,3.28-6.11,3.28h-.59c-4.07,0-5.43-1.87-6.11-3.28a11.05,11.05,0,0,1-.93-3.87H518a18.4,18.4,0,0,0,1.64,6.93c2.25,4.71,6.69,7.31,12.5,7.31h.59c5.8,0,10.24-2.6,12.5-7.31a18.4,18.4,0,0,0,1.64-6.93Z" transform="translate(-368.82 -204.29)" style="fill:#ddd"/><path d="M525.1,227.12a12,12,0,0,1,1-4.25c1.1-2.36,3-3.41,6.09-3.41h.59c3.12,0,5,1.05,6.09,3.41a12,12,0,0,1,1,4.25h7.1a19.3,19.3,0,0,0-1.63-7.23c-2.25-4.84-6.7-7.51-12.52-7.51h-.59c-5.82,0-10.27,2.67-12.52,7.51a19.3,19.3,0,0,0-1.63,7.23Z" transform="translate(-368.82 -204.29)" style="fill:#ddd"/></svg>